<?xml version="1.0" encoding="utf-8"?>
<!-- Generator: Adobe Illustrator 19.2.1, SVG Export Plug-In . SVG Version: 6.00 Build 0)  -->
<svg version="1.1" id="Layer_1" xmlns="http://www.w3.org/2000/svg" xmlns:xlink="http://www.w3.org/1999/xlink" x="0px" y="0px"
	 viewBox="0 0 600 600" style="enable-background:new 0 0 600 600;" xml:space="preserve">
<style type="text/css">
	.st0{fill:#CB6418;}
	.st1{fill:#CC7D17;}
	.st2{fill:#F9CEAF;}
	.st3{fill:#AC7347;}
	.st4{fill:#F2EFEC;}
	.st5{fill:#9C5927;}
</style>
<g>
	<circle class="st0" cx="225.5" cy="292.7" r="154.8"/>
	<circle class="st1" cx="432.4" cy="355.3" r="113.1"/>
	<circle class="st2" cx="421" cy="207" r="116"/>
	<ellipse class="st3" cx="339.7" cy="462.2" rx="167.6" ry="46.9"/>
	<g transform="translate(0,-284.29998)">
		<path class="st4" d="M252.5,442.2c-63.8,2.4-114.5,54.3-115.3,118.1c3.6-4.7,8.4-8.4,13.9-10.7c1.9-0.8,4.2,0.1,5,2.1
			c0.5,1.2,0.3,2.5-0.4,3.6c-17.4,25.8-15.7,60,4.1,84c24.2,35.6,65.4,55.8,108.4,53.2c3.8-0.2,7.5,1.7,9.5,4.9
			c4.7,7.6,7.9,16.1,9.4,25c0.9,5.4-2.5,10.5-7.8,11.8c-5.1,1.2-8.2,6.4-6.9,11.4c1,4.2,4.8,7.2,9.2,7.2h25.9c4.6,0,9-2.3,11.7-6
			c5.9-8.3,9-18.2,9-28.4v-23c0-4.1,2.4-7.8,6.2-9.5c35.1-15.4,76.1-7.8,103.4,19.2c1,1,1.8,2.3,2.4,3.6c1.7,4.4,3,9,3.7,13.7
			c0.9,5.3-2.5,10.5-7.8,11.8c-5.1,1.2-8.2,6.4-6.9,11.4c1,4.2,4.8,7.2,9.2,7.2h25.9c4.6,0,9-2.3,11.7-6c5.9-8.3,9-18.2,9-28.4
			v-31.7c0-5.9,1.5-11.8,4.4-17c15.3-27.6,15.5-61,0.6-88.8c-1.9-3.6-1.7-8,0.7-11.3c21.6-30.8,14.2-73.3-16.6-94.9
			c-19.6-13.7-44.9-16.2-66.8-6.5c4.8,0.5,9.5,1.6,14,3.3c2,0.7,3,2.9,2.2,4.9c-0.6,1.5-2,2.5-3.6,2.5
			c-27.6-0.5-50.3,21.5-50.8,49.1c-0.5,26.7,20.1,49,46.7,50.7c0.6,0,1.2-0.4,1.2-1h-0.2c1.1-14.9,14.2-26.1,29.1-25
			c9.2,0.7,17.4,6,21.8,14.1c0.5,1.1,0.1,2.4-0.9,2.9c-1,0.5-2.3,0.2-2.9-0.8c-6-11.1-19.8-15.2-30.9-9.2
			c-6.8,3.7-11.3,10.6-11.9,18.3c-0.2,3-2.8,5.2-5.8,5c-18.1-1.2-34.3-11.3-43.4-27c0.2,2,0.3,4,0.3,6c0,2.1-1.7,3.8-3.8,3.8
			c-1.2,0-2.4-0.6-3.1-1.6c-2.9-4.2-6.8-7.5-11.4-9.7c13.7,21.4,15.6,48.4,4.9,71.5c-0.4,1.1-1.7,1.7-2.8,1.2
			c-1.1-0.4-1.7-1.7-1.2-2.8c0-0.1,0.1-0.2,0.1-0.2c10.3-22.3,8.3-48.4-5.5-68.8c-1.2-1.7-0.7-4.1,1-5.3c1-0.7,2.4-0.8,3.5-0.4
			c5.5,2.3,10.3,6,14,10.7C367,496.5,316.2,444.5,252.5,442.2L252.5,442.2z M217.6,509.7c3.7,0,6.7,3.1,6.6,6.8c0,0.1,0,0.1,0,0.2
			c0.2,3.7-2.7,6.9-6.4,7c-3.7,0.2-6.9-2.7-7-6.4c0-0.2,0-0.4,0-0.6c-0.2-3.7,2.7-6.8,6.4-7C217.4,509.7,217.5,509.7,217.6,509.7z
			 M287.3,509.9c3.7-0.1,6.8,2.9,6.9,6.6c0,0.1,0,0.1,0,0.2c0,3.7-3,6.7-6.7,6.7c-3.7,0-6.7-3-6.7-6.7l0,0
			C280.6,513,283.6,509.9,287.3,509.9z M249.4,518.7h6.2c5.3,0,9.6,4.3,9.6,9.5c0,3-1.4,5.9-3.9,7.7l-6.6,4.9v7.9
			c7.4-0.2,14.8-1.7,21.8-4.3c1.1-0.4,2.4,0.2,2.7,1.4c0.4,1.1-0.2,2.2-1.2,2.7c-3.4,1.3-7,2.3-10.5,3c5.8,8.2,3.8,19.6-4.4,25.3
			c-8.2,5.8-19.6,3.8-25.3-4.4c-4.4-6.3-4.4-14.6,0-20.9c-3.6-0.7-7.1-1.8-10.5-3c-1.1-0.5-1.6-1.7-1.2-2.8c0.4-1,1.6-1.6,2.7-1.2
			c7,2.6,14.3,4,21.8,4.3v-7.9l-6.6-4.9c-4.2-3.1-5.1-9.1-2-13.4C243.5,520.1,246.3,518.7,249.4,518.7L249.4,518.7z"/>
		<path class="st4" d="M293.4,446.4c20.3,8,38.2,21.2,51.8,38.3c1-19.2-3.7-38.4-13.3-55c-1.5-2.6-4.6-3.7-7.4-2.6
			C312.9,431.4,302.4,438,293.4,446.4L293.4,446.4z"/>
		<path class="st4" d="M180.5,427c11.5,4.4,22,11,31,19.4c-20.3,8-38.2,21.2-51.8,38.3c-1-19.2,3.7-38.4,13.3-55
			C174.6,427.1,177.7,426,180.5,427L180.5,427z"/>
		<path class="st4" d="M197.4,680c5.2,8,8.6,16.9,10.2,26.3c0.9,5.4-2.5,10.5-7.8,11.8c-5.1,1.2-8.2,6.4-6.9,11.4
			c1,4.2,4.8,7.2,9.2,7.2h25.9c4.6,0,9-2.3,11.7-6c7-9.9,10.1-22.1,8.7-34.2C230.3,694.6,213,689,197.4,680L197.4,680z"/>
		<path class="st4" d="M361.4,718c-5.1,1.2-8.2,6.4-6.9,11.4c1,4.2,4.8,7.2,9.2,7.2h25.9c4.6,0,9-2.3,11.7-6
			c8.3-11.7,11-26.4,7.5-40.3c-15-6.8-31.6-9.3-47.9-7.3c4.2,7.2,7,15.1,8.3,23.3C370.1,711.6,366.7,716.7,361.4,718L361.4,718z"/>
		<path class="st4" d="M255.6,523c2.9,0,5.2,2.3,5.2,5.2c0,1.7-0.8,3.2-2.1,4.2l-6.2,4.6l-6.2-4.6c-2.3-1.7-2.8-5-1.1-7.3
			c1-1.3,2.6-2.1,4.2-2.1H255.6z"/>
		<path class="st4" d="M262.5,552.5c-6.6,0.9-13.4,0.9-20,0c-5.3,5.5-5.1,14.3,0.4,19.6c5.5,5.3,14.3,5.1,19.6-0.4
			C267.6,566.3,267.6,557.8,262.5,552.5z"/>
	</g>
	<ellipse class="st4" cx="256.7" cy="266.3" rx="28.2" ry="37.9"/>
	<g transform="translate(0,-284.29998)">
		<path class="st5" d="M256.7,442.2c-63.8,2.4-114.5,54.3-115.4,118.2c3.6-4.7,8.4-8.4,13.9-10.7c1.9-0.8,4.2,0.1,5,2.1
			c0.5,1.2,0.3,2.5-0.4,3.6c-17.4,25.8-15.7,60,4.1,84c24.2,35.6,65.5,55.9,108.5,53.2c3.8-0.2,7.5,1.7,9.5,4.9
			c4.7,7.6,7.9,16.1,9.4,25c0.9,5.4-2.5,10.5-7.8,11.8c-5.1,1.2-8.2,6.4-6.9,11.4c1,4.2,4.8,7.2,9.2,7.2h25.9c4.6,0,9-2.3,11.7-6.1
			c5.9-8.3,9-18.2,9-28.4v-23c0-4.1,2.4-7.8,6.2-9.5c35.2-15.4,76.2-7.8,103.5,19.2c1,1,1.8,2.3,2.4,3.6c1.7,4.4,3,9,3.7,13.7
			c0.9,5.3-2.5,10.5-7.8,11.8c-5.1,1.2-8.2,6.4-6.9,11.4c1,4.2,4.8,7.2,9.2,7.2h25.9c4.6,0,9-2.3,11.7-6.1c5.9-8.3,9-18.2,9-28.4
			v-31.7c0-5.9,1.5-11.8,4.4-17c15.3-27.6,15.5-61,0.6-88.8c-1.9-3.6-1.7-8,0.7-11.3c21.6-30.8,14.2-73.3-16.6-94.9
			c-19.6-13.8-45-16.2-66.8-6.5c4.8,0.5,9.5,1.6,14,3.3c2,0.7,3,2.9,2.2,4.9c-0.6,1.5-2,2.5-3.6,2.5c-27.6-0.5-50.4,21.5-50.9,49.1
			c-0.5,26.7,20.1,49,46.7,50.8c0.6,0,1.2-0.4,1.2-1H421c1.1-14.9,14.2-26.1,29.1-25c9.2,0.7,17.4,6,21.8,14.2
			c0.5,1.1,0.1,2.4-0.9,2.9c-1,0.5-2.3,0.2-2.9-0.8c-6-11.1-19.8-15.2-30.9-9.2c-6.8,3.7-11.3,10.6-11.9,18.3c-0.2,3-2.8,5.2-5.8,5
			c-18.1-1.2-34.4-11.3-43.4-27c0.2,2,0.3,4,0.3,6.1c0,2.1-1.7,3.8-3.8,3.8c-1.2,0-2.4-0.6-3.1-1.6c-2.9-4.2-6.8-7.5-11.4-9.7
			c13.7,21.5,15.6,48.4,4.9,71.5c-0.4,1.1-1.7,1.7-2.8,1.2c-1.1-0.4-1.7-1.7-1.2-2.8c0-0.1,0.1-0.2,0.1-0.2
			c10.3-22.3,8.3-48.4-5.5-68.8c-1.2-1.7-0.7-4.1,1-5.3c1-0.7,2.4-0.8,3.5-0.4c5.5,2.3,10.3,6,14,10.7
			C371.2,496.5,320.5,444.5,256.7,442.2L256.7,442.2z M221.8,509.7c3.7,0,6.7,3.1,6.6,6.8c0,0.1,0,0.1,0,0.2c0.2,3.7-2.7,6.9-6.4,7
			c-3.7,0.2-6.9-2.7-7-6.4c0-0.2,0-0.4,0-0.6c-0.2-3.7,2.7-6.9,6.4-7C221.6,509.7,221.7,509.7,221.8,509.7z M291.6,509.9
			c3.7-0.1,6.8,2.9,6.9,6.6c0,0.1,0,0.1,0,0.2c0,3.7-3,6.7-6.7,6.7c-3.7,0-6.7-3-6.7-6.7l0,0C284.9,513,287.9,509.9,291.6,509.9z
			 M253.6,518.7h6.2c5.3,0,9.6,4.3,9.6,9.6c0,3-1.4,5.9-3.9,7.7l-6.6,4.9v7.9c7.4-0.2,14.8-1.7,21.8-4.3c1.1-0.4,2.4,0.2,2.7,1.4
			c0.4,1.1-0.2,2.3-1.2,2.7c-3.4,1.3-7,2.3-10.5,3c5.8,8.2,3.8,19.6-4.4,25.3c-8.2,5.8-19.6,3.8-25.3-4.4c-4.4-6.3-4.4-14.6,0-20.9
			c-3.6-0.7-7.1-1.8-10.5-3c-1.1-0.5-1.6-1.7-1.2-2.8c0.4-1.1,1.6-1.6,2.7-1.2c7,2.6,14.3,4,21.8,4.3v-7.9l-6.6-4.9
			c-4.2-3.1-5.1-9.1-2-13.4C247.7,520.2,250.6,518.7,253.6,518.7L253.6,518.7z"/>
		<path class="st5" d="M297.7,446.3c20.3,8,38.2,21.2,51.8,38.3c1-19.3-3.7-38.4-13.3-55.1c-1.5-2.6-4.6-3.7-7.4-2.6
			C317.2,431.4,306.7,438,297.7,446.3L297.7,446.3z"/>
		<path class="st5" d="M184.7,427c11.5,4.4,22,11,31.1,19.4c-20.3,8-38.2,21.2-51.8,38.3c-1-19.3,3.7-38.4,13.3-55.1
			C178.8,427,181.9,425.9,184.7,427L184.7,427z"/>
		<path class="st5" d="M201.6,680.1c5.2,8,8.6,16.9,10.2,26.3c0.9,5.4-2.5,10.5-7.8,11.8c-5.1,1.2-8.2,6.4-6.9,11.4
			c1,4.2,4.8,7.2,9.2,7.2h25.9c4.6,0,9-2.3,11.7-6c7-9.9,10.1-22.1,8.7-34.2C234.6,694.7,217.2,689.1,201.6,680.1L201.6,680.1z"/>
		<path class="st5" d="M365.7,718.1c-5.1,1.2-8.2,6.4-6.9,11.4c1,4.2,4.8,7.2,9.2,7.2h25.9c4.6,0,9-2.3,11.7-6
			c8.3-11.7,11-26.5,7.5-40.4c-15-6.8-31.6-9.3-47.9-7.3c4.2,7.2,7,15.1,8.3,23.3C374.4,711.7,371,716.8,365.7,718.1L365.7,718.1z"
			/>
		<path class="st5" d="M259.8,523c2.9,0,5.2,2.3,5.3,5.2c0,1.7-0.8,3.2-2.1,4.2l-6.2,4.6l-6.2-4.6c-2.3-1.7-2.8-5-1.1-7.3
			c1-1.3,2.6-2.1,4.2-2.1H259.8z"/>
		<path class="st5" d="M266.7,552.5c-6.7,0.9-13.4,0.9-20,0c-5.3,5.5-5.1,14.3,0.4,19.6s14.3,5.1,19.6-0.4
			C271.9,566.3,271.9,557.9,266.7,552.5z"/>
	</g>
	<path class="st5" d="M177.7,138c-3.5,0.2-6.7,2.1-8.5,5.2c-10.9,18.9-15.7,40.7-13.5,62.5c-15,21-23,46.2-23,72
		c0,2.1,1.7,3.8,3.8,3.8c1.3,0,2.5-0.6,3.2-1.7c2.9-4.2,6.8-7.5,11.4-9.7c-17.4,27.2-15.3,62.6,5.2,87.5
		c8.1,11.8,18.1,22.2,29.7,30.7c9.2,9.5,15.2,21.5,17.3,34.5c0.5,3.1-1.5,6.1-4.6,6.9c-7.4,1.8-11.9,9.3-10,16.7
		c1.5,6.1,7,10.4,13.3,10.4h25.9c6.1,0,11.7-2.9,15.2-7.9c7.5-10.6,10.9-23.5,9.5-36.4c5.3,0.3,10.6,0.3,15.8,0
		c2.2-0.1,4.3,1,5.5,2.9c4.4,7.2,7.4,15.1,8.8,23.4c0.5,3.1-1.5,6.1-4.6,6.9c-7.4,1.8-11.9,9.2-10.1,16.6c1.5,6.2,7,10.5,13.4,10.5
		h25.9c6,0,11.7-2.9,15.2-7.9c6.4-9,9.8-19.8,9.8-30.9v-23c0-2.4,1.4-4.6,3.6-5.6c6.5-2.8,13.3-4.9,20.2-6.1
		c4.4,7.1,7.3,15.1,8.7,23.3c0.5,3.1-1.5,6.1-4.5,6.9c-7.4,1.8-11.9,9.3-10,16.7c1.5,6.1,7,10.4,13.3,10.4h25.9
		c6,0,11.7-2.9,15.2-7.9l0,0c8.3-11.7,11.5-26.3,9-40.4c7.7,4.1,14.8,9.3,21,15.4c0.6,0.6,1.1,1.3,1.4,2.1c1.6,4.2,2.8,8.5,3.5,12.9
		c0.5,3.1-1.5,6.1-4.6,6.9c-7.4,1.8-11.9,9.2-10.1,16.6c1.5,6.2,7,10.5,13.4,10.5h25.9c6,0,11.7-2.9,15.2-7.9
		c6.4-9,9.8-19.8,9.8-30.9v-31.7c0-5.2,1.3-10.3,3.8-14.9c16-28.9,16.2-63.9,0.7-93c-1.1-2.2-1-4.8,0.4-6.8
		c23-32.7,15.1-77.9-17.6-101c-21.4-15-49.3-17.4-72.9-6.1c-1.9,0.9-2.7,3.2-1.8,5.1c0.6,1.2,1.8,2.1,3.1,2.2c4,0.3,8,1.1,11.9,2.3
		c-26.2,1.1-47.9,20.7-51.6,46.6c-3.9-11.1-9.3-21.6-16.1-31.2c2.1-21.7-2.6-43.6-13.5-62.5c-2.6-4.4-7.9-6.3-12.7-4.5
		c-12.7,4.9-24.3,12.2-34.1,21.7c-11.7-4.1-24-6.4-36.4-6.8c-12.4,0.4-24.7,2.7-36.4,6.8c-9.8-9.5-21.3-16.9-34.1-21.7
		C180.6,138.1,179.2,137.9,177.7,138L177.7,138z M177.9,142.3c0.8,0,1.7,0.1,2.4,0.4c11.5,4.4,22,11,31.1,19.4
		c-20.3,8-38.2,21.2-51.8,38.3c-1-19.3,3.7-38.4,13.3-55.1C174,143.5,175.9,142.4,177.9,142.3L177.9,142.3z M326.2,142.3
		c2.3-0.1,4.4,1,5.6,3c9.7,16.7,14.3,35.8,13.3,55.1c-13.6-17.1-31.5-30.3-51.8-38.3c9-8.4,19.6-15,31.1-19.4
		C324.9,142.5,325.6,142.4,326.2,142.3L326.2,142.3z M252.3,157.9c63.8,2.4,114.5,54.3,115.4,118.2c-3.6-4.7-8.4-8.4-14-10.7
		c-1.9-0.8-4.2,0.2-5,2.1c-0.5,1.2-0.3,2.5,0.4,3.5c13.7,20.4,15.8,46.5,5.5,68.8c-0.6,1.1-0.2,2.4,0.9,2.9s2.4,0.2,2.9-0.9
		c0-0.1,0.1-0.2,0.1-0.2c10.7-23.1,8.9-50.1-4.9-71.5c4.6,2.2,8.5,5.6,11.4,9.7c1.2,1.7,3.6,2.1,5.3,0.9c1-0.7,1.6-1.9,1.6-3.1
		c-0.1-2-0.2-4-0.3-6.1c9.1,15.7,25.3,25.8,43.4,27c3,0.2,5.6-2,5.8-5c1-12.6,11.9-22,24.5-21c7.7,0.6,14.6,5.1,18.3,11.9
		c0.6,1,1.9,1.4,2.9,0.8c1-0.6,1.4-1.8,0.9-2.9c-7.1-13.2-23.6-18.1-36.8-11c-8.1,4.4-13.5,12.6-14.2,21.8h0.2c0,0.6-0.6,1.1-1.2,1
		c-27.5-1.8-48.4-25.5-46.7-53.1c1.7-26.7,24.1-47.2,50.8-46.8c2.1,0,3.8-1.7,3.9-3.8c0-1.6-1-3.1-2.5-3.6c-4.5-1.6-9.2-2.7-14-3.3
		c34.4-15.3,74.7,0.2,90,34.6c9.7,21.9,7.2,47.2-6.5,66.8c-2.3,3.3-2.6,7.7-0.7,11.3c14.9,27.8,14.6,61.2-0.6,88.8
		c-2.9,5.2-4.4,11-4.4,17v31.7c0,10.2-3.2,20.1-9,28.4c-2.7,3.8-7,6-11.7,6.1h-25.9c-5.2,0-9.5-4.2-9.5-9.4c0-4.4,3-8.1,7.2-9.2
		c5.3-1.3,8.6-6.4,7.8-11.8c-0.8-4.7-2-9.3-3.7-13.7c-0.5-1.4-1.3-2.6-2.4-3.6c-27.3-27-68.3-34.6-103.5-19.2
		c-3.8,1.7-6.2,5.4-6.2,9.5v23c0,10.2-3.2,20.1-9,28.4c-2.7,3.8-7,6.1-11.7,6.1h-25.9c-5.2,0-9.5-4.2-9.5-9.4c0-4.4,3-8.1,7.2-9.2
		c5.3-1.3,8.7-6.4,7.8-11.8c-1.5-8.9-4.6-17.4-9.4-25c-2-3.3-5.6-5.2-9.5-4.9c-43,2.6-84.2-17.6-108.5-53.2
		c-19.8-24-21.5-58.2-4.1-84c1.2-1.7,0.7-4.1-1-5.3c-1.1-0.7-2.4-0.9-3.6-0.4c-5.5,2.3-10.3,6-13.9,10.7
		C137.8,212.2,188.6,160.3,252.3,157.9L252.3,157.9z M197.3,395.8c15.6,9,32.9,14.6,50.9,16.4c1.4,12.1-1.7,24.3-8.7,34.2
		c-2.7,3.8-7,6.1-11.7,6.1h-25.9c-5.2,0-9.5-4.2-9.5-9.4c0-4.4,3-8.1,7.2-9.2c5.3-1.3,8.7-6.4,7.8-11.8
		C205.9,412.7,202.4,403.8,197.3,395.8z M374.1,398.1c12,0.3,23.7,3,34.6,8c3.5,13.9,0.7,28.6-7.5,40.4c-2.7,3.8-7,6.1-11.7,6.1
		h-25.9c-5.2,0-9.4-4.2-9.4-9.5c0-4.3,3-8.1,7.2-9.2c5.3-1.3,8.6-6.4,7.8-11.8c-1.3-8.2-4.2-16.1-8.3-23.3
		C365.2,398.2,369.7,398,374.1,398.1L374.1,398.1z"/>
	<path class="st5" d="M294.1,232.4c0-3.7-2.9-6.8-6.7-6.8c-3.7,0-6.8,2.9-6.8,6.7c0,0.1,0,0.1,0,0.2c0,3.7,2.9,6.8,6.7,6.8
		c3.7,0,6.8-2.9,6.8-6.7C294.1,232.5,294.1,232.5,294.1,232.4z"/>
	<path class="st5" d="M224.1,232.4c0.2-3.7-2.7-6.9-6.4-7c-3.7-0.2-6.9,2.7-7,6.4c0,0.2,0,0.4,0,0.6c-0.2,3.7,2.7,6.9,6.4,7
		c3.7,0.2,6.9-2.7,7-6.4C224.1,232.8,224.1,232.6,224.1,232.4z"/>
</g>
</svg>
